<?xml version="1.0" encoding="UTF-8"?>
<svg id="Capa_1" data-name="Capa 1" xmlns="http://www.w3.org/2000/svg" viewBox="0 0 2206.9 2206.9">
  <path d="M475.88,1367.29c-.14,2.74-2.44,6.29-3.89,6.76-1.81.58-5.64-3.35-5.55-5.56,6.89-156.23,108-294.27,246.16-361.85,68.61-33.56,143.11-46.2,218.92-37.44,40.37,4.66,77.99,12.19,116.72,23.67l110.03,32.61c79.3,23.5,161.32,43.34,244.39,31.12,88.3-12.99,180.26-71.4,197.58-165.97l-89.29,44.11c-1.66.82-4.81.19-6.15-.45s-.94-6.52,1.13-7.54l105.77-52.12,40.7,107.06c.64,1.69-.88,5.61-2.4,6.18s-5.87-1.76-6.47-3.35l-33.82-89.24c-20.54,93.48-105.37,151.79-194.14,168.47-79.44,14.93-167.14-1.9-244.07-24.72l-110.06-32.65c-115.96-34.4-221.74-47.68-335.07,4.22-139.11,63.7-242.45,199.83-250.5,356.68Z"/>
</svg>