<?xml version="1.0" encoding="UTF-8"?>
<svg id="Capa_1" data-name="Capa 1" xmlns="http://www.w3.org/2000/svg" viewBox="0 0 2206.9 2206.9">
  <path d="M1236.03,1466.82c-29.58,47.35-77.91,78.61-133.63,85.4-43.13,3.48-82.79-8.58-118.29-32.46-78.13-52.56-112.63-144.25-101.5-237.99-226.68,109.71-430.82,265.83-596.77,446.35-5.36,5.84-9.93,5.35-11.59,4.09-2.22-1.67-2.92-9.71-.87-11.94,174.05-189.74,381.2-344.64,613.46-457.41,30.49-137.43,136.25-230.38,255.47-293.95,157.87-81.79,325.89-134.12,504.63-162.67l-105.71-35.34c-3.08-1.03-5.38-9.43-3.37-10.79s7.4-2.83,10.41-1.86l134.35,43.19c2.27.73,6.64,3.74,7.99,5.08,1.81,1.79-1.46,8.2-3.46,9.85-47.17,39-91.43,76.92-135.83,119.06-2.13,2.02-8.21,3.27-10.71,2.31s-2.98-9.19-.9-11.17c38.63-36.77,78.76-71.69,120.01-106.88-173.64,25.13-339.81,76.06-495.12,153.75-115.2,57.63-228.24,149.6-260.83,281.77,113.35-46.09,230.81-52.54,317.13,40.3,42.59,49.39,49.55,116.16,15.11,171.29l.02.02ZM1227.1,1453.65c28.44-49.99,18.75-105.22-16.73-147.8-83.91-92.73-205.58-79.11-310.55-31.69-16.62,86.2,13.18,172.91,82.03,226.55,30.25,23.57,65.96,38.3,104.5,37.66,58.25-.95,111.45-33.24,140.75-84.73h0Z"/>
</svg>